<svg viewBox="0 0 16 16" fill="none" xmlns="http://www.w3.org/2000/svg"><path d="M8 .896A7.103 7.103 0 0 0 .896 8 7.103 7.103 0 0 0 8 15.104 7.103 7.103 0 0 0 15.104 8 7.103 7.103 0 0 0 8 .896Zm3.483 8.969a.344.344 0 0 1 0 .487l-1.134 1.131a.344.344 0 0 1-.487 0L8 9.604l-1.865 1.88a.344.344 0 0 1-.487 0l-1.131-1.135a.344.344 0 0 1 0-.487L6.396 8l-1.88-1.865a.344.344 0 0 1 0-.487l1.135-1.134a.344.344 0 0 1 .487 0L8 6.396l1.865-1.88a.344.344 0 0 1 .487 0l1.134 1.135a.344.344 0 0 1 0 .487L9.604 8l1.88 1.865Z" fill="#F33"/></svg>